<svg xmlns="http://www.w3.org/2000/svg" version="1.1" xmlns:xlink="http://www.w3.org/1999/xlink" xmlns:svgjs="http://svgjs.dev/svgjs" width="150" height="90" viewBox="0 0 2000 383"><g transform="matrix(1,0,0,1,-1.2121212121212466,-2.103157561688704)"><svg viewBox="0 0 396 76" data-background-color="#fafafa" preserveAspectRatio="xMidYMid meet" height="383" width="2000" xmlns="http://www.w3.org/2000/svg" xmlns:xlink="http://www.w3.org/1999/xlink"><g id="tight-bounds" transform="matrix(1,0,0,1,0.2400000000000091,0.4173367485335291)"><svg viewBox="0 0 395.52 75.16532650293293" height="75.16532650293293" width="395.52"><g><svg viewBox="0 0 508.71073326785347 96.67629541268363" height="75.16532650293293" width="395.52"><g transform="matrix(1,0,0,1,0,13.361195675703748)"><svg viewBox="0 0 395.52 69.95390406127613" height="69.95390406127613" width="395.52"><g id="textblocktransform"><svg viewBox="0 0 395.52 69.95390406127613" height="69.95390406127613" width="395.52" id="textblock"><g><svg viewBox="0 0 395.52 69.95390406127613" height="69.95390406127613" width="395.52"><g transform="matrix(1,0,0,1,0,0)"><svg width="395.52" viewBox="2.27 -35.91 246.62438594830297 43.379999999999995" height="69.95390406127613" data-palette-color="#ffffff"><g class="wordmark-text-0" data-fill-palette-color="primary" id="text-0"><path d="M19.02 0L10.99-26.22 8.25 0 2.27 0 8.25-35.16 17.11-35.16 25.34-8.33 33.67-35.16 42.53-35.16 47.51 0 37.65 0 34.74-25.54 27.88 0 19.02 0ZM81.76-28.2L81.76 0 73.51 0 73.51-3.37Q72.04-1.37 69.98-0.4 67.92 0.56 65.45 0.56L65.45 0.56Q62.23 0.56 59.69-0.59 57.15-1.73 55.39-3.72 53.64-5.71 52.71-8.4 51.78-11.08 51.78-14.16L51.78-14.16Q51.78-17.24 52.71-19.92 53.64-22.61 55.39-24.6 57.15-26.59 59.69-27.73 62.23-28.88 65.45-28.88L65.45-28.88Q67.09-28.88 68.56-28.39 70.04-27.91 71.27-27.01 72.51-26.12 73.45-24.87 74.39-23.61 74.92-22.07L74.92-22.07 78.59-28.2 81.76-28.2ZM73.46-14.16L73.46-14.16Q73.46-15.26 73.35-16.48 73.24-17.7 72.97-18.9 72.7-20.09 72.23-21.18 71.75-22.27 71.01-23.11 70.26-23.95 69.21-24.44 68.16-24.93 66.77-24.93L66.77-24.93Q65.38-24.93 64.35-24.43 63.33-23.93 62.6-23.08 61.86-22.24 61.39-21.14 60.91-20.04 60.64-18.85 60.37-17.65 60.26-16.44 60.15-15.23 60.15-14.16L60.15-14.16Q60.15-13.09 60.26-11.87 60.37-10.64 60.64-9.45 60.91-8.25 61.39-7.15 61.86-6.05 62.6-5.21 63.33-4.37 64.35-3.87 65.38-3.37 66.77-3.37L66.77-3.37Q68.04-3.37 69.03-3.89 70.02-4.42 70.76-5.3 71.51-6.18 72.02-7.3 72.53-8.42 72.85-9.62 73.17-10.82 73.31-12 73.46-13.18 73.46-14.16ZM112.62-25.71L112.62-25.71 107.98-18.02Q107.69-18.99 107.22-20.21 106.76-21.44 106.07-22.5 105.39-23.56 104.44-24.28 103.49-25 102.24-25L102.24-25Q101.09-25 100.25-24.41 99.41-23.83 98.82-22.89 98.24-21.95 97.86-20.76 97.48-19.58 97.27-18.37 97.07-17.16 96.99-16.05 96.92-14.94 96.92-14.14L96.92-14.14 96.92 0 88.64 0 88.64-28.2 91.82-28.2 95.16-21.63Q95.84-23.22 96.72-24.55 97.6-25.88 98.75-26.84 99.9-27.81 101.35-28.34 102.8-28.88 104.63-28.88L104.63-28.88Q105.59-28.88 106.76-28.72 107.93-28.56 109.05-28.19 110.18-27.81 111.13-27.2 112.08-26.59 112.62-25.71ZM122.84-13.38L122.84-13.38Q124.36-13.04 125.87-12.84 127.39-12.65 128.92-12.65L128.92-12.65Q130.53-12.65 131.91-12.95 133.29-13.26 134.31-13.98 135.32-14.7 135.91-15.89 136.49-17.09 136.49-18.87L136.49-18.87Q136.49-20.31 136.1-21.51 135.71-22.71 134.94-23.56 134.17-24.41 133.05-24.89 131.93-25.37 130.44-25.37L130.44-25.37Q129.05-25.37 127.93-24.85 126.82-24.34 125.98-23.47 125.14-22.61 124.54-21.46 123.94-20.31 123.55-19.07 123.16-17.82 122.99-16.55 122.82-15.28 122.82-14.16L122.82-14.16Q122.82-13.96 122.82-13.77 122.82-13.57 122.84-13.38ZM143.18-18.95L143.18-18.95Q143.18-17.21 142.62-15.86 142.06-14.5 141.09-13.48 140.13-12.45 138.86-11.74 137.59-11.04 136.15-10.58 134.71-10.13 133.18-9.94 131.66-9.74 130.22-9.74L130.22-9.74Q128.39-9.74 126.6-10 124.82-10.25 123.09-10.82L123.09-10.82Q123.36-9.2 123.94-7.75 124.53-6.3 125.51-5.21 126.48-4.13 127.91-3.49 129.34-2.86 131.29-2.86L131.29-2.86Q132.59-2.86 133.76-3.25 134.93-3.64 135.91-4.35 136.88-5.05 137.63-6.03 138.37-7.01 138.84-8.2L138.84-8.2 142.4-6.88Q141.59-4.96 140.19-3.55 138.79-2.15 137.02-1.23 135.25-0.32 133.26 0.12 131.27 0.56 129.31 0.56L129.31 0.56Q126.09 0.56 123.36-0.52 120.62-1.61 118.64-3.56 116.67-5.52 115.54-8.23 114.42-10.94 114.42-14.16L114.42-14.16Q114.42-17.38 115.54-20.09 116.67-22.8 118.64-24.76 120.62-26.71 123.36-27.8 126.09-28.88 129.31-28.88L129.31-28.88Q130.88-28.88 132.51-28.66 134.15-28.44 135.69-27.97 137.22-27.49 138.59-26.73 139.96-25.98 140.97-24.87 141.98-23.75 142.58-22.29 143.18-20.83 143.18-18.95ZM155.12-13.38L155.12-13.38Q156.63-13.04 158.14-12.84 159.66-12.65 161.2-12.65L161.2-12.65Q162.81-12.65 164.19-12.95 165.57-13.26 166.58-13.98 167.59-14.7 168.18-15.89 168.76-17.09 168.76-18.87L168.76-18.87Q168.76-20.31 168.37-21.51 167.98-22.71 167.21-23.56 166.45-24.41 165.32-24.89 164.2-25.37 162.71-25.37L162.71-25.37Q161.32-25.37 160.21-24.85 159.1-24.34 158.25-23.47 157.41-22.61 156.81-21.46 156.22-20.31 155.82-19.07 155.43-17.82 155.26-16.55 155.09-15.28 155.09-14.16L155.09-14.16Q155.09-13.96 155.09-13.77 155.09-13.57 155.12-13.38ZM175.45-18.95L175.45-18.95Q175.45-17.21 174.89-15.86 174.33-14.5 173.37-13.48 172.4-12.45 171.13-11.74 169.86-11.04 168.42-10.58 166.98-10.13 165.46-9.94 163.93-9.74 162.49-9.74L162.49-9.74Q160.66-9.74 158.88-10 157.09-10.25 155.36-10.82L155.36-10.82Q155.63-9.2 156.22-7.75 156.8-6.3 157.78-5.21 158.75-4.13 160.18-3.49 161.61-2.86 163.56-2.86L163.56-2.86Q164.86-2.86 166.03-3.25 167.2-3.64 168.18-4.35 169.16-5.05 169.9-6.03 170.64-7.01 171.11-8.2L171.11-8.2 174.67-6.88Q173.87-4.96 172.46-3.55 171.06-2.15 169.29-1.23 167.52-0.32 165.53 0.12 163.54 0.56 161.59 0.56L161.59 0.56Q158.36 0.56 155.63-0.52 152.9-1.61 150.92-3.56 148.94-5.52 147.82-8.23 146.69-10.94 146.69-14.16L146.69-14.16Q146.69-17.38 147.82-20.09 148.94-22.8 150.92-24.76 152.9-26.71 155.63-27.8 158.36-28.88 161.59-28.88L161.59-28.88Q163.15-28.88 164.78-28.66 166.42-28.44 167.96-27.97 169.5-27.49 170.86-26.73 172.23-25.98 173.24-24.87 174.26-23.75 174.86-22.29 175.45-20.83 175.45-18.95ZM209.44-16.16L209.44-16.16Q209.44-13.31 208.74-10.21 208.04-7.1 206.8-4.13 205.55-1.15 203.82 1.48 202.09 4.1 200.01 6.01L200.01 6.01 196.91 4.32Q197.57 3.1 198.16 1.59 198.74 0.07 199.22-1.62 199.69-3.32 200.07-5.13 200.45-6.93 200.71-8.7 200.96-10.47 201.1-12.15 201.23-13.82 201.23-15.26L201.23-15.26Q201.23-16.21 201.16-17.3 201.09-18.38 200.85-19.47 200.62-20.56 200.23-21.56 199.84-22.56 199.19-23.32 198.55-24.07 197.63-24.54 196.72-25 195.47-25L195.47-25Q194.25-25 193.3-24.45 192.35-23.9 191.61-23.01 190.88-22.12 190.36-20.97 189.83-19.82 189.5-18.62 189.17-17.41 189.03-16.24 188.88-15.06 188.88-14.14L188.88-14.14 188.88 0 180.6 0 180.6-28.2 183.78-28.2 187.56-21.63Q188.24-23.27 189.27-24.61 190.3-25.95 191.59-26.9 192.88-27.86 194.46-28.37 196.03-28.88 197.86-28.88L197.86-28.88Q200.79-28.88 202.97-27.93 205.14-26.98 206.58-25.28 208.02-23.58 208.73-21.25 209.44-18.92 209.44-16.16ZM248.89-16.82L248.89-16.82 248.89-16.36Q248.84-14.31 248.46-12.11 248.08-9.91 247.4-7.71 246.71-5.52 245.76-3.37 244.81-1.22 243.63 0.74 242.44 2.71 241.07 4.43 239.71 6.15 238.19 7.47L238.19 7.47 234.56 5.37Q235.41 3.93 236.11 2.23 236.8 0.54 237.36-1.32 237.92-3.17 238.33-5.13 238.73-7.08 239-9.01 239.27-10.94 239.4-12.81 239.54-14.67 239.54-16.36L239.54-16.36Q239.54-17.68 239.52-19.35 239.51-21.02 239.33-22.75 239.15-24.49 238.73-26.14 238.32-27.78 237.5-29.08 236.68-30.37 235.4-31.15 234.12-31.93 232.21-31.93L232.21-31.93Q230.53-31.93 229.32-31.36 228.11-30.79 227.27-29.82 226.43-28.86 225.92-27.59 225.42-26.32 225.14-24.91 224.86-23.51 224.78-22.08 224.69-20.65 224.69-19.38L224.69-19.38 224.69-12.57 235.21-12.57 235.21-8.54 224.69-8.54 224.69 0 215 0 215-17.87Q215-21.7 216.22-25 217.44-28.3 219.67-30.73 221.91-33.15 225.05-34.53 228.18-35.91 232.04-35.91L232.04-35.91Q234.65-35.91 236.94-35.17 239.22-34.42 241.1-33.12 242.98-31.81 244.46-30.02 245.93-28.22 246.92-26.1 247.91-23.97 248.42-21.61 248.94-19.24 248.89-16.82Z" fill="#ffffff" data-fill-palette-color="primary"></path></g></svg></g></svg></g></svg></g></svg></g><g transform="matrix(1,0,0,1,412.0344378551698,0)"><svg viewBox="0 0 96.67629541268363 96.67629541268363" height="96.67629541268363" width="96.67629541268363"><g data-palette-color="#e8179e"><rect width="26.424854079466858" height="96.67629541268363" fill="#e8179e" stroke="transparent" data-fill-palette-color="accent" x="0" fill-opacity="1"></rect><rect width="26.424854079466858" height="96.67629541268363" fill="#e8179e" stroke="transparent" data-fill-palette-color="accent" x="32.225431804227874" fill-opacity="0.75"></rect><rect width="26.424854079466858" height="96.67629541268363" fill="#e8179e" stroke="transparent" data-fill-palette-color="accent" x="64.45086360845575" fill-opacity="0.5"></rect></g></svg></g></svg></g><defs></defs></svg><rect width="395.52" height="75.16532650293293" fill="none" stroke="none" visibility="hidden"></rect></g></svg></g></svg>